<svg id="visual" viewBox="0 0 900 600" width="900" height="600" xmlns="http://www.w3.org/2000/svg" xmlns:xlink="http://www.w3.org/1999/xlink" version="1.1"><g stroke-width="1" stroke-linejoin="bevel"><path d="M431 302.7L468 310L442 272.1Z" fill="#505050" stroke="#505050"></path><path d="M442 272.1L434 262.3L431 302.7Z" fill="#000000" stroke="#000000"></path><path d="M468 310L487 278.9L442 272.1Z" fill="#0d0d0d" stroke="#0d0d0d"></path><path d="M442 272.1L475 256L434 262.3Z" fill="#363636" stroke="#363636"></path><path d="M487 278.9L475 256L442 272.1Z" fill="#505050" stroke="#505050"></path><path d="M468 310L496 282L487 278.9Z" fill="#474747" stroke="#474747"></path><path d="M487 278.9L496 282L475 256Z" fill="#505050" stroke="#505050"></path><path d="M468 310L501 286.3L496 282Z" fill="#0d0d0d" stroke="#0d0d0d"></path><path d="M509 206.6L482 205L475 256Z" fill="#363636" stroke="#363636"></path><path d="M403 211.3L396 260.4L434 262.3Z" fill="#2e2e2e" stroke="#2e2e2e"></path><path d="M434 262.3L396 260.4L431 302.7Z" fill="#595959" stroke="#595959"></path><path d="M404 377L442 358.9L431 302.7Z" fill="#3f3f3f" stroke="#3f3f3f"></path><path d="M431 302.7L442 358.9L468 310Z" fill="#2e2e2e" stroke="#2e2e2e"></path><path d="M468 310L545 339.9L501 286.3Z" fill="#0d0d0d" stroke="#0d0d0d"></path><path d="M442 358.9L453 367.9L468 310Z" fill="#000000" stroke="#000000"></path><path d="M396 260.4L373 285.3L431 302.7Z" fill="#171717" stroke="#171717"></path><path d="M509 206.6L475 256L496 282Z" fill="#595959" stroke="#595959"></path><path d="M475 256L482 205L434 262.3Z" fill="#363636" stroke="#363636"></path><path d="M482 205L403 211.3L434 262.3Z" fill="#000000" stroke="#000000"></path><path d="M396 260.4L358 270.9L373 285.3Z" fill="#595959" stroke="#595959"></path><path d="M382 210.1L358 270.9L396 260.4Z" fill="#000000" stroke="#000000"></path><path d="M373 285.3L404 377L431 302.7Z" fill="#171717" stroke="#171717"></path><path d="M398 385.7L404 377L350 390.6Z" fill="#262626" stroke="#262626"></path><path d="M442 358.9L404 377L453 367.9Z" fill="#505050" stroke="#505050"></path><path d="M564 295.1L550 274.3L501 286.3Z" fill="#595959" stroke="#595959"></path><path d="M501 286.3L550 274.3L496 282Z" fill="#363636" stroke="#363636"></path><path d="M501 390.7L521 368.6L453 367.9Z" fill="#1e1e1e" stroke="#1e1e1e"></path><path d="M453 367.9L521 368.6L468 310Z" fill="#262626" stroke="#262626"></path><path d="M550 274.3L509 206.6L496 282Z" fill="#0d0d0d" stroke="#0d0d0d"></path><path d="M521 368.6L545 339.9L468 310Z" fill="#595959" stroke="#595959"></path><path d="M564 295.1L556 277.1L550 274.3Z" fill="#171717" stroke="#171717"></path><path d="M550 274.3L519 201.6L509 206.6Z" fill="#171717" stroke="#171717"></path><path d="M350 390.6L404 377L373 285.3Z" fill="#3f3f3f" stroke="#3f3f3f"></path><path d="M404 377L401 403.6L453 367.9Z" fill="#474747" stroke="#474747"></path><path d="M521 368.6L541 354.7L545 339.9Z" fill="#0d0d0d" stroke="#0d0d0d"></path><path d="M389 202.4L382 210.1L403 211.3Z" fill="#363636" stroke="#363636"></path><path d="M403 211.3L382 210.1L396 260.4Z" fill="#363636" stroke="#363636"></path><path d="M458 452.7L501 390.7L453 367.9Z" fill="#2e2e2e" stroke="#2e2e2e"></path><path d="M521 368.6L531 417.7L541 354.7Z" fill="#171717" stroke="#171717"></path><path d="M445 172.1L389 202.4L403 211.3Z" fill="#1e1e1e" stroke="#1e1e1e"></path><path d="M587 338L564 295.1L545 339.9Z" fill="#363636" stroke="#363636"></path><path d="M545 339.9L564 295.1L501 286.3Z" fill="#171717" stroke="#171717"></path><path d="M583 203L519 201.6L550 274.3Z" fill="#1e1e1e" stroke="#1e1e1e"></path><path d="M509 206.6L494 169.6L482 205Z" fill="#000000" stroke="#000000"></path><path d="M482 205L445 172.1L403 211.3Z" fill="#595959" stroke="#595959"></path><path d="M491 167.7L445 172.1L482 205Z" fill="#2e2e2e" stroke="#2e2e2e"></path><path d="M350 390.6L401 403.6L398 385.7Z" fill="#363636" stroke="#363636"></path><path d="M398 385.7L401 403.6L404 377Z" fill="#474747" stroke="#474747"></path><path d="M519 201.6L494 169.6L509 206.6Z" fill="#000000" stroke="#000000"></path><path d="M494 169.6L491 167.7L482 205Z" fill="#000000" stroke="#000000"></path><path d="M306 278L350 390.6L373 285.3Z" fill="#262626" stroke="#262626"></path><path d="M615 364L587 338L605 403.4Z" fill="#262626" stroke="#262626"></path><path d="M541 354.7L587 338L545 339.9Z" fill="#3f3f3f" stroke="#3f3f3f"></path><path d="M623 253.9L583 203L556 277.1Z" fill="#171717" stroke="#171717"></path><path d="M583 203L532 162.4L519 201.6Z" fill="#595959" stroke="#595959"></path><path d="M287 383.4L348 393.4L350 390.6Z" fill="#505050" stroke="#505050"></path><path d="M350 390.6L348 393.4L401 403.6Z" fill="#0d0d0d" stroke="#0d0d0d"></path><path d="M311 248.9L358 270.9L382 210.1Z" fill="#363636" stroke="#363636"></path><path d="M311 248.9L312 252.4L358 270.9Z" fill="#505050" stroke="#505050"></path><path d="M358 270.9L306 278L373 285.3Z" fill="#171717" stroke="#171717"></path><path d="M312 252.4L306 278L358 270.9Z" fill="#000000" stroke="#000000"></path><path d="M521 428.9L531 417.7L501 390.7Z" fill="#595959" stroke="#595959"></path><path d="M501 390.7L531 417.7L521 368.6Z" fill="#171717" stroke="#171717"></path><path d="M310 166.6L311 248.9L382 210.1Z" fill="#000000" stroke="#000000"></path><path d="M312 252.4L268 234.3L306 278Z" fill="#505050" stroke="#505050"></path><path d="M615 364L595 334.1L587 338Z" fill="#595959" stroke="#595959"></path><path d="M587 338L595 334.1L564 295.1Z" fill="#0d0d0d" stroke="#0d0d0d"></path><path d="M458 452.7L521 428.9L501 390.7Z" fill="#595959" stroke="#595959"></path><path d="M458 452.7L453 367.9L401 403.6Z" fill="#363636" stroke="#363636"></path><path d="M583 203L550 274.3L556 277.1Z" fill="#1e1e1e" stroke="#1e1e1e"></path><path d="M519 201.6L532 162.4L494 169.6Z" fill="#171717" stroke="#171717"></path><path d="M494 169.6L489 127.7L491 167.7Z" fill="#363636" stroke="#363636"></path><path d="M491 167.7L450 139.4L445 172.1Z" fill="#0d0d0d" stroke="#0d0d0d"></path><path d="M489 127.7L450 139.4L491 167.7Z" fill="#363636" stroke="#363636"></path><path d="M445 172.1L412 136.9L389 202.4Z" fill="#595959" stroke="#595959"></path><path d="M389 202.4L367 155.3L382 210.1Z" fill="#363636" stroke="#363636"></path><path d="M359 436.7L398 439.7L401 403.6Z" fill="#474747" stroke="#474747"></path><path d="M623 253.9L556 277.1L564 295.1Z" fill="#1e1e1e" stroke="#1e1e1e"></path><path d="M583 203L536 157.6L532 162.4Z" fill="#595959" stroke="#595959"></path><path d="M532 162.4L489 127.7L494 169.6Z" fill="#505050" stroke="#505050"></path><path d="M398 439.7L458 452.7L401 403.6Z" fill="#1e1e1e" stroke="#1e1e1e"></path><path d="M450 139.4L412 136.9L445 172.1Z" fill="#2e2e2e" stroke="#2e2e2e"></path><path d="M412 136.9L367 155.3L389 202.4Z" fill="#474747" stroke="#474747"></path><path d="M536 157.6L489 127.7L532 162.4Z" fill="#1e1e1e" stroke="#1e1e1e"></path><path d="M450 139.4L456 104.4L412 136.9Z" fill="#363636" stroke="#363636"></path><path d="M297 430.6L359 436.7L348 393.4Z" fill="#474747" stroke="#474747"></path><path d="M348 393.4L359 436.7L401 403.6Z" fill="#595959" stroke="#595959"></path><path d="M398 439.7L449 475.6L458 452.7Z" fill="#0d0d0d" stroke="#0d0d0d"></path><path d="M530 458.3L547 437.3L521 428.9Z" fill="#262626" stroke="#262626"></path><path d="M521 428.9L547 437.3L531 417.7Z" fill="#2e2e2e" stroke="#2e2e2e"></path><path d="M605 403.4L587 338L541 354.7Z" fill="#000000" stroke="#000000"></path><path d="M359 436.7L376 449.3L398 439.7Z" fill="#0d0d0d" stroke="#0d0d0d"></path><path d="M489 127.7L473 119.9L450 139.4Z" fill="#000000" stroke="#000000"></path><path d="M595 334.1L623 253.9L564 295.1Z" fill="#262626" stroke="#262626"></path><path d="M605 403.4L541 354.7L531 417.7Z" fill="#1e1e1e" stroke="#1e1e1e"></path><path d="M595 334.1L653 309.3L623 253.9Z" fill="#262626" stroke="#262626"></path><path d="M379 479.1L449 475.6L398 439.7Z" fill="#1e1e1e" stroke="#1e1e1e"></path><path d="M458 452.7L530 458.3L521 428.9Z" fill="#000000" stroke="#000000"></path><path d="M504 488.4L530 458.3L458 452.7Z" fill="#262626" stroke="#262626"></path><path d="M547 437.3L605 403.4L531 417.7Z" fill="#0d0d0d" stroke="#0d0d0d"></path><path d="M253 389L287 383.4L220 351.1Z" fill="#000000" stroke="#000000"></path><path d="M306 278L287 383.4L350 390.6Z" fill="#363636" stroke="#363636"></path><path d="M610 461.4L605 403.4L547 437.3Z" fill="#2e2e2e" stroke="#2e2e2e"></path><path d="M468 86.7L456 104.4L473 119.9Z" fill="#3f3f3f" stroke="#3f3f3f"></path><path d="M473 119.9L456 104.4L450 139.4Z" fill="#1e1e1e" stroke="#1e1e1e"></path><path d="M412 136.9L361 100.9L367 155.3Z" fill="#000000" stroke="#000000"></path><path d="M468 86.7L473 119.9L489 127.7Z" fill="#262626" stroke="#262626"></path><path d="M297 430.6L352 454.6L359 436.7Z" fill="#474747" stroke="#474747"></path><path d="M359 436.7L352 454.6L376 449.3Z" fill="#171717" stroke="#171717"></path><path d="M376 449.3L379 479.1L398 439.7Z" fill="#1e1e1e" stroke="#1e1e1e"></path><path d="M318 126.3L310 166.6L367 155.3Z" fill="#505050" stroke="#505050"></path><path d="M367 155.3L310 166.6L382 210.1Z" fill="#000000" stroke="#000000"></path><path d="M311 248.9L268 234.3L312 252.4Z" fill="#1e1e1e" stroke="#1e1e1e"></path><path d="M583 203L596 166.3L536 157.6Z" fill="#3f3f3f" stroke="#3f3f3f"></path><path d="M582 129.6L468 86.7L489 127.7Z" fill="#595959" stroke="#595959"></path><path d="M620 156.7L596 166.3L583 203Z" fill="#474747" stroke="#474747"></path><path d="M260 199.1L268 234.3L311 248.9Z" fill="#1e1e1e" stroke="#1e1e1e"></path><path d="M681 420.6L646 331.6L615 364Z" fill="#262626" stroke="#262626"></path><path d="M615 364L646 331.6L595 334.1Z" fill="#262626" stroke="#262626"></path><path d="M620 156.7L597 157.1L596 166.3Z" fill="#474747" stroke="#474747"></path><path d="M596 166.3L597 157.1L536 157.6Z" fill="#1e1e1e" stroke="#1e1e1e"></path><path d="M620 156.7L583 203L623 253.9Z" fill="#363636" stroke="#363636"></path><path d="M352 454.6L379 479.1L376 449.3Z" fill="#505050" stroke="#505050"></path><path d="M646 331.6L653 309.3L595 334.1Z" fill="#000000" stroke="#000000"></path><path d="M470 501.3L504 488.4L458 452.7Z" fill="#171717" stroke="#171717"></path><path d="M530 458.3L585 477.4L547 437.3Z" fill="#0d0d0d" stroke="#0d0d0d"></path><path d="M470 501.3L458 452.7L449 475.6Z" fill="#2e2e2e" stroke="#2e2e2e"></path><path d="M582 129.6L489 127.7L536 157.6Z" fill="#171717" stroke="#171717"></path><path d="M424 83.9L407 87.6L412 136.9Z" fill="#0d0d0d" stroke="#0d0d0d"></path><path d="M287 383.4L297 430.6L348 393.4Z" fill="#595959" stroke="#595959"></path><path d="M352 454.6L328 521.6L379 479.1Z" fill="#474747" stroke="#474747"></path><path d="M597 157.1L582 129.6L536 157.6Z" fill="#171717" stroke="#171717"></path><path d="M457 508.6L470 501.3L449 475.6Z" fill="#1e1e1e" stroke="#1e1e1e"></path><path d="M424 83.9L412 136.9L456 104.4Z" fill="#363636" stroke="#363636"></path><path d="M468 86.7L424 83.9L456 104.4Z" fill="#262626" stroke="#262626"></path><path d="M407 87.6L361 100.9L412 136.9Z" fill="#363636" stroke="#363636"></path><path d="M310 166.6L260 199.1L311 248.9Z" fill="#171717" stroke="#171717"></path><path d="M220 351.1L287 383.4L306 278Z" fill="#474747" stroke="#474747"></path><path d="M234 112.6L260 199.1L310 166.6Z" fill="#000000" stroke="#000000"></path><path d="M361 100.9L318 126.3L367 155.3Z" fill="#2e2e2e" stroke="#2e2e2e"></path><path d="M379 479.1L457 508.6L449 475.6Z" fill="#1e1e1e" stroke="#1e1e1e"></path><path d="M573 526.6L566 501.1L504 488.4Z" fill="#1e1e1e" stroke="#1e1e1e"></path><path d="M692 229.3L620 156.7L623 253.9Z" fill="#1e1e1e" stroke="#1e1e1e"></path><path d="M597 157.1L611 145.6L582 129.6Z" fill="#3f3f3f" stroke="#3f3f3f"></path><path d="M620 156.7L611 145.6L597 157.1Z" fill="#505050" stroke="#505050"></path><path d="M620 156.7L612 144.3L611 145.6Z" fill="#505050" stroke="#505050"></path><path d="M611 145.6L612 144.3L582 129.6Z" fill="#3f3f3f" stroke="#3f3f3f"></path><path d="M252 390L253 389L214 377.6Z" fill="#474747" stroke="#474747"></path><path d="M287 383.4L253 389L297 430.6Z" fill="#171717" stroke="#171717"></path><path d="M233 254.4L306 278L268 234.3Z" fill="#595959" stroke="#595959"></path><path d="M253 389L252 390L297 430.6Z" fill="#363636" stroke="#363636"></path><path d="M238 229.1L233 254.4L268 234.3Z" fill="#505050" stroke="#505050"></path><path d="M260 199.1L238 229.1L268 234.3Z" fill="#000000" stroke="#000000"></path><path d="M266 458.6L307 463.4L297 430.6Z" fill="#171717" stroke="#171717"></path><path d="M297 430.6L307 463.4L352 454.6Z" fill="#2e2e2e" stroke="#2e2e2e"></path><path d="M379 479.1L430 543.3L457 508.6Z" fill="#474747" stroke="#474747"></path><path d="M566 501.1L530 458.3L504 488.4Z" fill="#000000" stroke="#000000"></path><path d="M566 501.1L585 477.4L530 458.3Z" fill="#0d0d0d" stroke="#0d0d0d"></path><path d="M605 403.4L681 420.6L615 364Z" fill="#3f3f3f" stroke="#3f3f3f"></path><path d="M610 461.4L627 440.9L605 403.4Z" fill="#3f3f3f" stroke="#3f3f3f"></path><path d="M727 283.9L692 229.3L653 309.3Z" fill="#2e2e2e" stroke="#2e2e2e"></path><path d="M585 477.4L610 461.4L547 437.3Z" fill="#505050" stroke="#505050"></path><path d="M407 87.6L399 64.7L361 100.9Z" fill="#0d0d0d" stroke="#0d0d0d"></path><path d="M361 100.9L347 78.4L318 126.3Z" fill="#505050" stroke="#505050"></path><path d="M424 83.9L399 64.7L407 87.6Z" fill="#262626" stroke="#262626"></path><path d="M424 -2.3L399 64.7L424 83.9Z" fill="#1e1e1e" stroke="#1e1e1e"></path><path d="M610 461.4L626 450.4L627 440.9Z" fill="#2e2e2e" stroke="#2e2e2e"></path><path d="M727 283.9L653 309.3L756 352.1Z" fill="#505050" stroke="#505050"></path><path d="M216 262.4L216 306.7L233 254.4Z" fill="#262626" stroke="#262626"></path><path d="M233 254.4L216 306.7L306 278Z" fill="#0d0d0d" stroke="#0d0d0d"></path><path d="M639 491.6L637 458.7L610 461.4Z" fill="#2e2e2e" stroke="#2e2e2e"></path><path d="M610 461.4L637 458.7L626 450.4Z" fill="#0d0d0d" stroke="#0d0d0d"></path><path d="M573 526.6L504 488.4L508 582.3Z" fill="#2e2e2e" stroke="#2e2e2e"></path><path d="M238 229.1L216 262.4L233 254.4Z" fill="#1e1e1e" stroke="#1e1e1e"></path><path d="M399 64.7L347 78.4L361 100.9Z" fill="#505050" stroke="#505050"></path><path d="M228 111.6L202 211.4L260 199.1Z" fill="#505050" stroke="#505050"></path><path d="M202 211.4L216 262.4L238 229.1Z" fill="#474747" stroke="#474747"></path><path d="M216 306.7L220 351.1L306 278Z" fill="#0d0d0d" stroke="#0d0d0d"></path><path d="M252 390L266 458.6L297 430.6Z" fill="#474747" stroke="#474747"></path><path d="M681 420.6L605 403.4L627 440.9Z" fill="#595959" stroke="#595959"></path><path d="M653 309.3L692 229.3L623 253.9Z" fill="#363636" stroke="#363636"></path><path d="M654 116.7L631 100.9L612 144.3Z" fill="#2e2e2e" stroke="#2e2e2e"></path><path d="M639 491.6L610 461.4L585 477.4Z" fill="#262626" stroke="#262626"></path><path d="M626 450.4L648 447.3L627 440.9Z" fill="#2e2e2e" stroke="#2e2e2e"></path><path d="M193 413.9L266 458.6L252 390Z" fill="#000000" stroke="#000000"></path><path d="M328 521.6L381 532.1L379 479.1Z" fill="#1e1e1e" stroke="#1e1e1e"></path><path d="M637 458.7L648 447.3L626 450.4Z" fill="#000000" stroke="#000000"></path><path d="M328 521.6L352 454.6L307 463.4Z" fill="#2e2e2e" stroke="#2e2e2e"></path><path d="M457 508.6L503 583.1L470 501.3Z" fill="#1e1e1e" stroke="#1e1e1e"></path><path d="M202 211.4L203 270.1L216 262.4Z" fill="#474747" stroke="#474747"></path><path d="M216 262.4L203 270.1L216 306.7Z" fill="#171717" stroke="#171717"></path><path d="M187 379.9L214 377.6L220 351.1Z" fill="#0d0d0d" stroke="#0d0d0d"></path><path d="M202 211.4L238 229.1L260 199.1Z" fill="#1e1e1e" stroke="#1e1e1e"></path><path d="M381 532.1L430 543.3L379 479.1Z" fill="#262626" stroke="#262626"></path><path d="M182 329.7L220 351.1L216 306.7Z" fill="#0d0d0d" stroke="#0d0d0d"></path><path d="M220 351.1L214 377.6L253 389Z" fill="#474747" stroke="#474747"></path><path d="M727 283.9L698 217.4L692 229.3Z" fill="#474747" stroke="#474747"></path><path d="M692 229.3L698 217.4L620 156.7Z" fill="#2e2e2e" stroke="#2e2e2e"></path><path d="M399 64.7L353 53.9L347 78.4Z" fill="#505050" stroke="#505050"></path><path d="M347 78.4L328 45.7L318 126.3Z" fill="#262626" stroke="#262626"></path><path d="M381 532.1L429 551.4L430 543.3Z" fill="#000000" stroke="#000000"></path><path d="M430 543.3L503 583.1L457 508.6Z" fill="#171717" stroke="#171717"></path><path d="M266 458.6L328 521.6L307 463.4Z" fill="#1e1e1e" stroke="#1e1e1e"></path><path d="M381 532.1L395 600L429 551.4Z" fill="#1e1e1e" stroke="#1e1e1e"></path><path d="M424 -2.3L375 43.6L399 64.7Z" fill="#000000" stroke="#000000"></path><path d="M399 64.7L375 43.6L353 53.9Z" fill="#2e2e2e" stroke="#2e2e2e"></path><path d="M424 -2.3L424 83.9L468 86.7Z" fill="#1e1e1e" stroke="#1e1e1e"></path><path d="M695 414.9L681 420.6L686 469.3Z" fill="#262626" stroke="#262626"></path><path d="M648 447.3L681 420.6L627 440.9Z" fill="#0d0d0d" stroke="#0d0d0d"></path><path d="M612 144.3L631 100.9L582 129.6Z" fill="#1e1e1e" stroke="#1e1e1e"></path><path d="M564 0L495 0L468 86.7Z" fill="#2e2e2e" stroke="#2e2e2e"></path><path d="M654 116.7L612 144.3L620 156.7Z" fill="#2e2e2e" stroke="#2e2e2e"></path><path d="M566 501.1L596 525.4L585 477.4Z" fill="#0d0d0d" stroke="#0d0d0d"></path><path d="M686 469.3L681 420.6L648 447.3Z" fill="#171717" stroke="#171717"></path><path d="M508 582.3L504 488.4L470 501.3Z" fill="#474747" stroke="#474747"></path><path d="M234 112.6L310 166.6L318 126.3Z" fill="#171717" stroke="#171717"></path><path d="M709 170.1L654 116.7L620 156.7Z" fill="#595959" stroke="#595959"></path><path d="M686 469.3L648 447.3L637 458.7Z" fill="#595959" stroke="#595959"></path><path d="M681 420.6L695 414.9L646 331.6Z" fill="#2e2e2e" stroke="#2e2e2e"></path><path d="M167 268.9L182 329.7L203 270.1Z" fill="#3f3f3f" stroke="#3f3f3f"></path><path d="M203 270.1L182 329.7L216 306.7Z" fill="#171717" stroke="#171717"></path><path d="M214 377.6L193 413.9L252 390Z" fill="#363636" stroke="#363636"></path><path d="M596 525.4L639 491.6L585 477.4Z" fill="#262626" stroke="#262626"></path><path d="M634 554.3L596 525.4L602 600Z" fill="#363636" stroke="#363636"></path><path d="M573 526.6L596 525.4L566 501.1Z" fill="#595959" stroke="#595959"></path><path d="M756 352.1L653 309.3L646 331.6Z" fill="#171717" stroke="#171717"></path><path d="M346 2.9L328 45.7L353 53.9Z" fill="#262626" stroke="#262626"></path><path d="M353 53.9L328 45.7L347 78.4Z" fill="#474747" stroke="#474747"></path><path d="M182 329.7L187 379.9L220 351.1Z" fill="#171717" stroke="#171717"></path><path d="M358 600L357 556.4L295 588.3Z" fill="#474747" stroke="#474747"></path><path d="M227 503.1L328 521.6L266 458.6Z" fill="#262626" stroke="#262626"></path><path d="M328 521.6L357 556.4L381 532.1Z" fill="#505050" stroke="#505050"></path><path d="M228 77.7L234 112.6L318 126.3Z" fill="#363636" stroke="#363636"></path><path d="M654 116.7L634 74.4L631 100.9Z" fill="#0d0d0d" stroke="#0d0d0d"></path><path d="M631 100.9L634 74.4L582 129.6Z" fill="#0d0d0d" stroke="#0d0d0d"></path><path d="M721 152.7L709 170.1L728 158.6Z" fill="#595959" stroke="#595959"></path><path d="M698 217.4L709 170.1L620 156.7Z" fill="#171717" stroke="#171717"></path><path d="M654 116.7L684 80.9L634 74.4Z" fill="#505050" stroke="#505050"></path><path d="M187 379.9L193 413.9L214 377.6Z" fill="#000000" stroke="#000000"></path><path d="M144 292L167 268.9L133 240.4Z" fill="#595959" stroke="#595959"></path><path d="M202 211.4L167 268.9L203 270.1Z" fill="#000000" stroke="#000000"></path><path d="M162 392.9L193 413.9L187 379.9Z" fill="#262626" stroke="#262626"></path><path d="M161 400.4L186 425.3L193 413.9Z" fill="#2e2e2e" stroke="#2e2e2e"></path><path d="M228 77.7L228 111.6L234 112.6Z" fill="#1e1e1e" stroke="#1e1e1e"></path><path d="M234 112.6L228 111.6L260 199.1Z" fill="#595959" stroke="#595959"></path><path d="M718 419.7L724 394.9L695 414.9Z" fill="#2e2e2e" stroke="#2e2e2e"></path><path d="M695 414.9L724 394.9L646 331.6Z" fill="#2e2e2e" stroke="#2e2e2e"></path><path d="M639 491.6L686 469.3L637 458.7Z" fill="#363636" stroke="#363636"></path><path d="M660 520.1L686 469.3L639 491.6Z" fill="#595959" stroke="#595959"></path><path d="M727 431.3L718 419.7L695 414.9Z" fill="#262626" stroke="#262626"></path><path d="M487 595.1L503 583.1L429 551.4Z" fill="#171717" stroke="#171717"></path><path d="M429 551.4L503 583.1L430 543.3Z" fill="#363636" stroke="#363636"></path><path d="M503 583.1L508 582.3L470 501.3Z" fill="#505050" stroke="#505050"></path><path d="M596 525.4L660 520.1L639 491.6Z" fill="#000000" stroke="#000000"></path><path d="M587 20.9L468 86.7L582 129.6Z" fill="#0d0d0d" stroke="#0d0d0d"></path><path d="M375 43.6L346 2.9L353 53.9Z" fill="#595959" stroke="#595959"></path><path d="M495 0L424 -2.3L468 86.7Z" fill="#505050" stroke="#505050"></path><path d="M162 392.9L187 379.9L182 329.7Z" fill="#3f3f3f" stroke="#3f3f3f"></path><path d="M193 413.9L186 425.3L266 458.6Z" fill="#1e1e1e" stroke="#1e1e1e"></path><path d="M721 152.7L709 139.7L709 170.1Z" fill="#171717" stroke="#171717"></path><path d="M709 170.1L709 139.7L654 116.7Z" fill="#1e1e1e" stroke="#1e1e1e"></path><path d="M424 -2.3L388 0L375 43.6Z" fill="#363636" stroke="#363636"></path><path d="M328 45.7L228 77.7L318 126.3Z" fill="#595959" stroke="#595959"></path><path d="M288 -15.1L381 0L388 0Z" fill="#474747" stroke="#474747"></path><path d="M388 0L381 0L375 43.6Z" fill="#3f3f3f" stroke="#3f3f3f"></path><path d="M288 -15.1L379 0L381 0Z" fill="#0d0d0d" stroke="#0d0d0d"></path><path d="M381 0L379 0L375 43.6Z" fill="#363636" stroke="#363636"></path><path d="M728 158.6L709 170.1L773 202.3Z" fill="#363636" stroke="#363636"></path><path d="M634 74.4L587 20.9L582 129.6Z" fill="#171717" stroke="#171717"></path><path d="M631 34.7L587 20.9L634 74.4Z" fill="#262626" stroke="#262626"></path><path d="M479 600L487 595.1L429 551.4Z" fill="#474747" stroke="#474747"></path><path d="M503 583.1L493 600L508 582.3Z" fill="#595959" stroke="#595959"></path><path d="M107 389L162 392.9L93 347.6Z" fill="#3f3f3f" stroke="#3f3f3f"></path><path d="M721 152.7L758 143.4L709 139.7Z" fill="#363636" stroke="#363636"></path><path d="M773 202.3L709 170.1L698 217.4Z" fill="#595959" stroke="#595959"></path><path d="M686 469.3L727 431.3L695 414.9Z" fill="#0d0d0d" stroke="#0d0d0d"></path><path d="M718 419.7L727 431.3L724 394.9Z" fill="#000000" stroke="#000000"></path><path d="M724 394.9L756 352.1L646 331.6Z" fill="#2e2e2e" stroke="#2e2e2e"></path><path d="M727 283.9L773 203L698 217.4Z" fill="#3f3f3f" stroke="#3f3f3f"></path><path d="M596 525.4L573 526.6L602 600Z" fill="#595959" stroke="#595959"></path><path d="M634 554.3L660 520.1L596 525.4Z" fill="#505050" stroke="#505050"></path><path d="M686 469.3L762 476.7L727 431.3Z" fill="#1e1e1e" stroke="#1e1e1e"></path><path d="M167 478.3L227 503.1L186 425.3Z" fill="#474747" stroke="#474747"></path><path d="M186 425.3L227 503.1L266 458.6Z" fill="#1e1e1e" stroke="#1e1e1e"></path><path d="M133 240.4L167 268.9L202 211.4Z" fill="#474747" stroke="#474747"></path><path d="M167 268.9L144 292L182 329.7Z" fill="#000000" stroke="#000000"></path><path d="M395 600L479 600L429 551.4Z" fill="#363636" stroke="#363636"></path><path d="M487 595.1L493 600L503 583.1Z" fill="#000000" stroke="#000000"></path><path d="M379 0L346 2.9L375 43.6Z" fill="#000000" stroke="#000000"></path><path d="M793 406.9L756 352.1L724 394.9Z" fill="#000000" stroke="#000000"></path><path d="M479 600L493 600L487 595.1Z" fill="#262626" stroke="#262626"></path><path d="M129 445.7L161 400.4L107 389Z" fill="#171717" stroke="#171717"></path><path d="M162 392.9L161 400.4L193 413.9Z" fill="#595959" stroke="#595959"></path><path d="M221 65.7L228 77.7L259 0Z" fill="#505050" stroke="#505050"></path><path d="M111 205.6L133 240.4L202 211.4Z" fill="#1e1e1e" stroke="#1e1e1e"></path><path d="M778 291.7L759 344L797 302.1Z" fill="#3f3f3f" stroke="#3f3f3f"></path><path d="M756 352.1L759 344L727 283.9Z" fill="#000000" stroke="#000000"></path><path d="M391 600L381 532.1L357 556.4Z" fill="#2e2e2e" stroke="#2e2e2e"></path><path d="M391 600L395 600L381 532.1Z" fill="#363636" stroke="#363636"></path><path d="M358 600L391 600L357 556.4Z" fill="#3f3f3f" stroke="#3f3f3f"></path><path d="M587 20.9L564 0L468 86.7Z" fill="#363636" stroke="#363636"></path><path d="M495 0L610 -6.1L424 -2.3Z" fill="#474747" stroke="#474747"></path><path d="M684 80.9L654 116.7L709 139.7Z" fill="#3f3f3f" stroke="#3f3f3f"></path><path d="M687 74.4L631 34.7L634 74.4Z" fill="#505050" stroke="#505050"></path><path d="M587 20.9L596 0L564 0Z" fill="#474747" stroke="#474747"></path><path d="M687 74.4L684 80.9L713 59.7Z" fill="#3f3f3f" stroke="#3f3f3f"></path><path d="M602 600L573 526.6L508 582.3Z" fill="#1e1e1e" stroke="#1e1e1e"></path><path d="M713 59.7L684 80.9L745 99.6Z" fill="#171717" stroke="#171717"></path><path d="M684 80.9L687 74.4L634 74.4Z" fill="#000000" stroke="#000000"></path><path d="M295 588.3L357 556.4L328 521.6Z" fill="#1e1e1e" stroke="#1e1e1e"></path><path d="M143 125.3L202 211.4L228 111.6Z" fill="#171717" stroke="#171717"></path><path d="M144 292L93 347.6L182 329.7Z" fill="#262626" stroke="#262626"></path><path d="M259 0L228 77.7L328 45.7Z" fill="#1e1e1e" stroke="#1e1e1e"></path><path d="M228 77.7L187 69.7L228 111.6Z" fill="#505050" stroke="#505050"></path><path d="M634 554.3L683 521.1L660 520.1Z" fill="#2e2e2e" stroke="#2e2e2e"></path><path d="M660 520.1L683 521.1L686 469.3Z" fill="#262626" stroke="#262626"></path><path d="M288 -15.1L311 0L346 2.9Z" fill="#363636" stroke="#363636"></path><path d="M346 2.9L311 0L328 45.7Z" fill="#171717" stroke="#171717"></path><path d="M288 -15.1L346 2.9L379 0Z" fill="#262626" stroke="#262626"></path><path d="M759 344L778 291.7L727 283.9Z" fill="#000000" stroke="#000000"></path><path d="M610 -6.1L596 0L631 34.7Z" fill="#262626" stroke="#262626"></path><path d="M631 34.7L596 0L587 20.9Z" fill="#3f3f3f" stroke="#3f3f3f"></path><path d="M564 0L610 -6.1L495 0Z" fill="#000000" stroke="#000000"></path><path d="M227 503.1L273 570.1L328 521.6Z" fill="#1e1e1e" stroke="#1e1e1e"></path><path d="M295 588.3L359 610.3L358 600Z" fill="#000000" stroke="#000000"></path><path d="M358 600L359 610.3L391 600Z" fill="#363636" stroke="#363636"></path><path d="M391 600L359 610.3L395 600Z" fill="#2e2e2e" stroke="#2e2e2e"></path><path d="M395 600L484 647.1L479 600Z" fill="#171717" stroke="#171717"></path><path d="M479 600L484 647.1L493 600Z" fill="#262626" stroke="#262626"></path><path d="M778 291.7L773 203L727 283.9Z" fill="#505050" stroke="#505050"></path><path d="M728 158.6L758 143.4L721 152.7Z" fill="#0d0d0d" stroke="#0d0d0d"></path><path d="M815 194.4L773 202.3L773 203Z" fill="#0d0d0d" stroke="#0d0d0d"></path><path d="M773 203L773 202.3L698 217.4Z" fill="#505050" stroke="#505050"></path><path d="M273 570.1L295 588.3L328 521.6Z" fill="#262626" stroke="#262626"></path><path d="M797 302.1L789 285.3L778 291.7Z" fill="#3f3f3f" stroke="#3f3f3f"></path><path d="M778 291.7L789 285.3L773 203Z" fill="#1e1e1e" stroke="#1e1e1e"></path><path d="M797 302.1L759 344L793 406.9Z" fill="#595959" stroke="#595959"></path><path d="M227 503.1L263 572.3L273 570.1Z" fill="#474747" stroke="#474747"></path><path d="M273 570.1L263 572.3L295 588.3Z" fill="#000000" stroke="#000000"></path><path d="M212 546.4L263 572.3L227 503.1Z" fill="#262626" stroke="#262626"></path><path d="M649 0L610 -6.1L631 34.7Z" fill="#474747" stroke="#474747"></path><path d="M596 0L610 -6.1L564 0Z" fill="#505050" stroke="#505050"></path><path d="M424 -2.3L288 -15.1L388 0Z" fill="#474747" stroke="#474747"></path><path d="M91 221.3L116 252.3L133 240.4Z" fill="#1e1e1e" stroke="#1e1e1e"></path><path d="M133 240.4L116 252.3L144 292Z" fill="#1e1e1e" stroke="#1e1e1e"></path><path d="M129 445.7L186 425.3L161 400.4Z" fill="#171717" stroke="#171717"></path><path d="M129 445.7L167 478.3L186 425.3Z" fill="#000000" stroke="#000000"></path><path d="M773 202.3L758 143.4L728 158.6Z" fill="#0d0d0d" stroke="#0d0d0d"></path><path d="M657 0L649 0L631 34.7Z" fill="#474747" stroke="#474747"></path><path d="M484 647.1L602 600L493 600Z" fill="#0d0d0d" stroke="#0d0d0d"></path><path d="M493 600L602 600L508 582.3Z" fill="#0d0d0d" stroke="#0d0d0d"></path><path d="M634 554.3L705 600L683 521.1Z" fill="#363636" stroke="#363636"></path><path d="M116 252.3L110 294.1L144 292Z" fill="#363636" stroke="#363636"></path><path d="M793 406.9L724 394.9L727 431.3Z" fill="#3f3f3f" stroke="#3f3f3f"></path><path d="M793 406.9L759 344L756 352.1Z" fill="#2e2e2e" stroke="#2e2e2e"></path><path d="M789 285.3L815 194.4L773 203Z" fill="#000000" stroke="#000000"></path><path d="M187 19.7L187 69.7L221 65.7Z" fill="#3f3f3f" stroke="#3f3f3f"></path><path d="M221 65.7L187 69.7L228 77.7Z" fill="#2e2e2e" stroke="#2e2e2e"></path><path d="M602 600L617 600L634 554.3Z" fill="#1e1e1e" stroke="#1e1e1e"></path><path d="M647 630.1L617 600L602 600Z" fill="#474747" stroke="#474747"></path><path d="M167 478.3L212 546.4L227 503.1Z" fill="#505050" stroke="#505050"></path><path d="M311 0L259 0L328 45.7Z" fill="#171717" stroke="#171717"></path><path d="M818 -43.1L288 -15.1L424 -2.3Z" fill="#171717" stroke="#171717"></path><path d="M745 99.6L684 80.9L709 139.7Z" fill="#262626" stroke="#262626"></path><path d="M288 -15.1L259 0L311 0Z" fill="#171717" stroke="#171717"></path><path d="M758 143.4L745 99.6L709 139.7Z" fill="#1e1e1e" stroke="#1e1e1e"></path><path d="M187 69.7L143 125.3L228 111.6Z" fill="#474747" stroke="#474747"></path><path d="M143 125.3L111 205.6L202 211.4Z" fill="#474747" stroke="#474747"></path><path d="M18 328.1L96 316.9L0 290Z" fill="#000000" stroke="#000000"></path><path d="M647 630.1L625 600L617 600Z" fill="#474747" stroke="#474747"></path><path d="M617 600L625 600L634 554.3Z" fill="#262626" stroke="#262626"></path><path d="M657 0L631 34.7L687 74.4Z" fill="#595959" stroke="#595959"></path><path d="M359 610.3L484 647.1L395 600Z" fill="#1e1e1e" stroke="#1e1e1e"></path><path d="M91 221.3L110 294.1L116 252.3Z" fill="#363636" stroke="#363636"></path><path d="M110 294.1L96 316.9L144 292Z" fill="#3f3f3f" stroke="#3f3f3f"></path><path d="M107 389L161 400.4L162 392.9Z" fill="#3f3f3f" stroke="#3f3f3f"></path><path d="M167 478.3L198 561.1L212 546.4Z" fill="#000000" stroke="#000000"></path><path d="M711 17.9L657 0L687 74.4Z" fill="#171717" stroke="#171717"></path><path d="M649 0L657 0L610 -6.1Z" fill="#262626" stroke="#262626"></path><path d="M93 347.6L162 392.9L182 329.7Z" fill="#505050" stroke="#505050"></path><path d="M762 476.7L686 469.3L752 525.6Z" fill="#595959" stroke="#595959"></path><path d="M762 476.7L793 406.9L727 431.3Z" fill="#363636" stroke="#363636"></path><path d="M752 525.6L686 469.3L683 521.1Z" fill="#595959" stroke="#595959"></path><path d="M647 630.1L644 600L625 600Z" fill="#000000" stroke="#000000"></path><path d="M625 600L644 600L634 554.3Z" fill="#262626" stroke="#262626"></path><path d="M96 316.9L93 347.6L144 292Z" fill="#505050" stroke="#505050"></path><path d="M259 0L211 15.9L221 65.7Z" fill="#1e1e1e" stroke="#1e1e1e"></path><path d="M187 69.7L144 43.6L143 125.3Z" fill="#363636" stroke="#363636"></path><path d="M222 -0.1L211 15.9L259 0Z" fill="#2e2e2e" stroke="#2e2e2e"></path><path d="M38 178.1L91 221.3L111 205.6Z" fill="#474747" stroke="#474747"></path><path d="M111 205.6L91 221.3L133 240.4Z" fill="#171717" stroke="#171717"></path><path d="M65 385L81 387.9L93 347.6Z" fill="#505050" stroke="#505050"></path><path d="M136 564.1L198 561.1L167 478.3Z" fill="#2e2e2e" stroke="#2e2e2e"></path><path d="M212 546.4L205 600L263 572.3Z" fill="#595959" stroke="#595959"></path><path d="M263 572.3L205 600L295 588.3Z" fill="#0d0d0d" stroke="#0d0d0d"></path><path d="M295 588.3L205 600L359 610.3Z" fill="#000000" stroke="#000000"></path><path d="M288 -15.1L222 -0.1L259 0Z" fill="#0d0d0d" stroke="#0d0d0d"></path><path d="M878 222L815 194.4L789 285.3Z" fill="#505050" stroke="#505050"></path><path d="M773 202.3L818 170.1L758 143.4Z" fill="#363636" stroke="#363636"></path><path d="M758 143.4L851 99.4L745 99.6Z" fill="#171717" stroke="#171717"></path><path d="M856 301L789 285.3L797 302.1Z" fill="#000000" stroke="#000000"></path><path d="M748 21.9L711 17.9L713 59.7Z" fill="#2e2e2e" stroke="#2e2e2e"></path><path d="M713 59.7L711 17.9L687 74.4Z" fill="#363636" stroke="#363636"></path><path d="M763 44.6L713 59.7L745 99.6Z" fill="#363636" stroke="#363636"></path><path d="M762 476.7L807 451.4L793 406.9Z" fill="#505050" stroke="#505050"></path><path d="M705 600L752 525.6L683 521.1Z" fill="#363636" stroke="#363636"></path><path d="M175 0L187 19.7L211 15.9Z" fill="#474747" stroke="#474747"></path><path d="M211 15.9L187 19.7L221 65.7Z" fill="#505050" stroke="#505050"></path><path d="M143 125.3L38 178.1L111 205.6Z" fill="#1e1e1e" stroke="#1e1e1e"></path><path d="M65 385L18 328.1L28 381.4Z" fill="#363636" stroke="#363636"></path><path d="M93 347.6L81 387.9L107 389Z" fill="#171717" stroke="#171717"></path><path d="M107 389L81 387.9L129 445.7Z" fill="#1e1e1e" stroke="#1e1e1e"></path><path d="M129 445.7L120 496.3L167 478.3Z" fill="#595959" stroke="#595959"></path><path d="M711 17.9L700 0L657 0Z" fill="#262626" stroke="#262626"></path><path d="M657 0L818 -43.1L610 -6.1Z" fill="#505050" stroke="#505050"></path><path d="M860 188.3L818 170.1L815 194.4Z" fill="#000000" stroke="#000000"></path><path d="M815 194.4L818 170.1L773 202.3Z" fill="#595959" stroke="#595959"></path><path d="M711 17.9L734 0L700 0Z" fill="#474747" stroke="#474747"></path><path d="M814 500.6L807 451.4L762 476.7Z" fill="#262626" stroke="#262626"></path><path d="M793 406.9L856 301L797 302.1Z" fill="#0d0d0d" stroke="#0d0d0d"></path><path d="M109 502.4L120 496.3L129 445.7Z" fill="#595959" stroke="#595959"></path><path d="M484 647.1L647 630.1L602 600Z" fill="#1e1e1e" stroke="#1e1e1e"></path><path d="M644 600L705 600L634 554.3Z" fill="#171717" stroke="#171717"></path><path d="M807 451.4L823 422.7L793 406.9Z" fill="#363636" stroke="#363636"></path><path d="M177 600L205 600L198 561.1Z" fill="#000000" stroke="#000000"></path><path d="M198 561.1L205 600L212 546.4Z" fill="#505050" stroke="#505050"></path><path d="M359 610.3L136 644.1L484 647.1Z" fill="#171717" stroke="#171717"></path><path d="M167 0L144 43.6L187 19.7Z" fill="#1e1e1e" stroke="#1e1e1e"></path><path d="M187 19.7L144 43.6L187 69.7Z" fill="#1e1e1e" stroke="#1e1e1e"></path><path d="M695 618.1L705 600L644 600Z" fill="#505050" stroke="#505050"></path><path d="M752 525.6L814 500.6L762 476.7Z" fill="#2e2e2e" stroke="#2e2e2e"></path><path d="M65 385L93 347.6L18 328.1Z" fill="#505050" stroke="#505050"></path><path d="M81 387.9L45 470.7L129 445.7Z" fill="#171717" stroke="#171717"></path><path d="M843 76.6L763 44.6L745 99.6Z" fill="#363636" stroke="#363636"></path><path d="M763 44.6L748 21.9L713 59.7Z" fill="#3f3f3f" stroke="#3f3f3f"></path><path d="M45 470.7L109 502.4L129 445.7Z" fill="#505050" stroke="#505050"></path><path d="M120 496.3L136 564.1L167 478.3Z" fill="#262626" stroke="#262626"></path><path d="M288 -15.1L175 0L222 -0.1Z" fill="#363636" stroke="#363636"></path><path d="M222 -0.1L175 0L211 15.9Z" fill="#474747" stroke="#474747"></path><path d="M823 422.7L856 301L793 406.9Z" fill="#595959" stroke="#595959"></path><path d="M647 630.1L695 618.1L644 600Z" fill="#3f3f3f" stroke="#3f3f3f"></path><path d="M806 600L814 500.6L752 525.6Z" fill="#262626" stroke="#262626"></path><path d="M757 0L734 0L748 21.9Z" fill="#000000" stroke="#000000"></path><path d="M748 21.9L734 0L711 17.9Z" fill="#262626" stroke="#262626"></path><path d="M700 0L818 -43.1L657 0Z" fill="#505050" stroke="#505050"></path><path d="M288 -15.1L167 0L175 0Z" fill="#474747" stroke="#474747"></path><path d="M175 0L167 0L187 19.7Z" fill="#2e2e2e" stroke="#2e2e2e"></path><path d="M136 564.1L177 600L198 561.1Z" fill="#3f3f3f" stroke="#3f3f3f"></path><path d="M205 600L136 644.1L359 610.3Z" fill="#595959" stroke="#595959"></path><path d="M763 44.6L767 20.7L748 21.9Z" fill="#474747" stroke="#474747"></path><path d="M843 76.6L767 20.7L763 44.6Z" fill="#595959" stroke="#595959"></path><path d="M109 502.4L136 564.1L120 496.3Z" fill="#3f3f3f" stroke="#3f3f3f"></path><path d="M807 451.4L860 500.1L823 422.7Z" fill="#595959" stroke="#595959"></path><path d="M900 344.6L900 248.4L856 301Z" fill="#2e2e2e" stroke="#2e2e2e"></path><path d="M757 600L752 525.6L705 600Z" fill="#000000" stroke="#000000"></path><path d="M878 222L860 188.3L815 194.4Z" fill="#2e2e2e" stroke="#2e2e2e"></path><path d="M818 170.1L851 99.4L758 143.4Z" fill="#000000" stroke="#000000"></path><path d="M818 -43.1L757 0L767 20.7Z" fill="#000000" stroke="#000000"></path><path d="M767 20.7L757 0L748 21.9Z" fill="#0d0d0d" stroke="#0d0d0d"></path><path d="M734 0L818 -43.1L700 0Z" fill="#262626" stroke="#262626"></path><path d="M62 86.4L38 178.1L143 125.3Z" fill="#1e1e1e" stroke="#1e1e1e"></path><path d="M0 290L96 316.9L110 294.1Z" fill="#262626" stroke="#262626"></path><path d="M66 79.6L143 125.3L144 43.6Z" fill="#1e1e1e" stroke="#1e1e1e"></path><path d="M856 301L878 222L789 285.3Z" fill="#505050" stroke="#505050"></path><path d="M900 248.4L878 222L856 301Z" fill="#0d0d0d" stroke="#0d0d0d"></path><path d="M695 618.1L757 600L705 600Z" fill="#2e2e2e" stroke="#2e2e2e"></path><path d="M18 328.1L93 347.6L96 316.9Z" fill="#000000" stroke="#000000"></path><path d="M65 385L45 470.7L81 387.9Z" fill="#3f3f3f" stroke="#3f3f3f"></path><path d="M126 600L142 600L136 564.1Z" fill="#000000" stroke="#000000"></path><path d="M0 290L110 294.1L0 258.9Z" fill="#2e2e2e" stroke="#2e2e2e"></path><path d="M90 540.4L136 564.1L109 502.4Z" fill="#000000" stroke="#000000"></path><path d="M136 564.1L142 600L177 600Z" fill="#000000" stroke="#000000"></path><path d="M177 600L136 644.1L205 600Z" fill="#1e1e1e" stroke="#1e1e1e"></path><path d="M45 470.7L90 540.4L109 502.4Z" fill="#474747" stroke="#474747"></path><path d="M73 50.6L66 79.6L144 43.6Z" fill="#000000" stroke="#000000"></path><path d="M66 79.6L62 86.4L143 125.3Z" fill="#474747" stroke="#474747"></path><path d="M288 -15.1L120 0L167 0Z" fill="#171717" stroke="#171717"></path><path d="M167 0L120 0L144 43.6Z" fill="#474747" stroke="#474747"></path><path d="M900 157.1L851 99.4L860 188.3Z" fill="#505050" stroke="#505050"></path><path d="M860 188.3L851 99.4L818 170.1Z" fill="#3f3f3f" stroke="#3f3f3f"></path><path d="M37 467.7L45 470.7L65 385Z" fill="#474747" stroke="#474747"></path><path d="M851 99.4L843 76.6L745 99.6Z" fill="#2e2e2e" stroke="#2e2e2e"></path><path d="M98 600L126 600L136 564.1Z" fill="#171717" stroke="#171717"></path><path d="M142 600L136 644.1L177 600Z" fill="#0d0d0d" stroke="#0d0d0d"></path><path d="M83 581.1L136 564.1L90 540.4Z" fill="#595959" stroke="#595959"></path><path d="M829 641.1L773 607.3L695 618.1Z" fill="#505050" stroke="#505050"></path><path d="M695 618.1L773 607.3L757 600Z" fill="#595959" stroke="#595959"></path><path d="M757 600L806 600L752 525.6Z" fill="#262626" stroke="#262626"></path><path d="M18 328.1L7 358L28 381.4Z" fill="#000000" stroke="#000000"></path><path d="M0 423.6L37 467.7L65 385Z" fill="#1e1e1e" stroke="#1e1e1e"></path><path d="M0 290L7 358L18 328.1Z" fill="#474747" stroke="#474747"></path><path d="M78 32.9L73 50.6L144 43.6Z" fill="#595959" stroke="#595959"></path><path d="M0 81.7L0 92.4L62 86.4Z" fill="#474747" stroke="#474747"></path><path d="M900 344.6L856 301L900 355.7Z" fill="#1e1e1e" stroke="#1e1e1e"></path><path d="M878 222L900 201.6L860 188.3Z" fill="#363636" stroke="#363636"></path><path d="M0 422.4L65 385L28 381.4Z" fill="#595959" stroke="#595959"></path><path d="M0 540.3L73 581.1L90 540.4Z" fill="#595959" stroke="#595959"></path><path d="M856 301L823 422.7L900 364Z" fill="#3f3f3f" stroke="#3f3f3f"></path><path d="M900 355.7L856 301L900 364Z" fill="#000000" stroke="#000000"></path><path d="M0 258.9L91 221.3L0 238.1Z" fill="#505050" stroke="#505050"></path><path d="M0 258.9L110 294.1L91 221.3Z" fill="#505050" stroke="#505050"></path><path d="M900 364L823 422.7L900 427.9Z" fill="#171717" stroke="#171717"></path><path d="M0 238.1L91 221.3L38 178.1Z" fill="#0d0d0d" stroke="#0d0d0d"></path><path d="M0 238.1L38 178.1L0 192.3Z" fill="#262626" stroke="#262626"></path><path d="M860 500.1L807 451.4L814 500.6Z" fill="#171717" stroke="#171717"></path><path d="M0 192.3L38 178.1L0 153.7Z" fill="#2e2e2e" stroke="#2e2e2e"></path><path d="M120 0L78 32.9L144 43.6Z" fill="#2e2e2e" stroke="#2e2e2e"></path><path d="M0 153.7L38 178.1L62 86.4Z" fill="#474747" stroke="#474747"></path><path d="M900 248.4L900 201.6L878 222Z" fill="#3f3f3f" stroke="#3f3f3f"></path><path d="M851 99.4L900 58.7L843 76.6Z" fill="#3f3f3f" stroke="#3f3f3f"></path><path d="M867 547.4L860 500.1L814 500.6Z" fill="#0d0d0d" stroke="#0d0d0d"></path><path d="M288 -15.1L99 0L120 0Z" fill="#1e1e1e" stroke="#1e1e1e"></path><path d="M120 0L99 0L78 32.9Z" fill="#474747" stroke="#474747"></path><path d="M0 153.7L62 86.4L0 92.4Z" fill="#595959" stroke="#595959"></path><path d="M898 450.7L900 427.9L823 422.7Z" fill="#171717" stroke="#171717"></path><path d="M900 201.6L900 157.1L860 188.3Z" fill="#474747" stroke="#474747"></path><path d="M73 581.1L83 581.1L90 540.4Z" fill="#505050" stroke="#505050"></path><path d="M773 607.3L806 600L757 600Z" fill="#262626" stroke="#262626"></path><path d="M860 500.1L898 450.7L823 422.7Z" fill="#262626" stroke="#262626"></path><path d="M83 581.1L98 600L136 564.1Z" fill="#000000" stroke="#000000"></path><path d="M126 600L136 644.1L142 600Z" fill="#3f3f3f" stroke="#3f3f3f"></path><path d="M0 500.1L90 540.4L45 470.7Z" fill="#000000" stroke="#000000"></path><path d="M7 358L0 422.4L28 381.4Z" fill="#1e1e1e" stroke="#1e1e1e"></path><path d="M-22 454.3L0 422.4L7 358Z" fill="#171717" stroke="#171717"></path><path d="M0 422.4L0 423.6L65 385Z" fill="#262626" stroke="#262626"></path><path d="M900 248.4L912 186.1L900 201.6Z" fill="#171717" stroke="#171717"></path><path d="M900 201.6L912 186.1L900 157.1Z" fill="#363636" stroke="#363636"></path><path d="M916 382.6L912 186.1L900 248.4Z" fill="#2e2e2e" stroke="#2e2e2e"></path><path d="M916 382.6L900 248.4L900 344.6Z" fill="#1e1e1e" stroke="#1e1e1e"></path><path d="M916 382.6L900 344.6L900 355.7Z" fill="#474747" stroke="#474747"></path><path d="M916 382.6L900 355.7L900 364Z" fill="#363636" stroke="#363636"></path><path d="M900 427.9L916 382.6L900 364Z" fill="#262626" stroke="#262626"></path><path d="M98 600L136 644.1L126 600Z" fill="#2e2e2e" stroke="#2e2e2e"></path><path d="M901 474.3L898 450.7L860 500.1Z" fill="#2e2e2e" stroke="#2e2e2e"></path><path d="M900 427.9L926 437.4L916 382.6Z" fill="#171717" stroke="#171717"></path><path d="M54 0L73 50.6L78 32.9Z" fill="#505050" stroke="#505050"></path><path d="M62 86.4L0 74.9L0 81.7Z" fill="#595959" stroke="#595959"></path><path d="M0 500.1L45 470.7L37 467.7Z" fill="#595959" stroke="#595959"></path><path d="M83 581.1L73 581.1L98 600Z" fill="#363636" stroke="#363636"></path><path d="M98 600L0 600L136 644.1Z" fill="#505050" stroke="#505050"></path><path d="M912 186.1L900 122.3L900 157.1Z" fill="#000000" stroke="#000000"></path><path d="M900 157.1L900 122.3L851 99.4Z" fill="#3f3f3f" stroke="#3f3f3f"></path><path d="M873 20.9L818 -43.1L767 20.7Z" fill="#363636" stroke="#363636"></path><path d="M912 186.1L900 109.9L900 122.3Z" fill="#363636" stroke="#363636"></path><path d="M900 122.3L900 109.9L851 99.4Z" fill="#3f3f3f" stroke="#3f3f3f"></path><path d="M900 481.1L901 474.3L860 500.1Z" fill="#595959" stroke="#595959"></path><path d="M898 450.7L926 437.4L900 427.9Z" fill="#000000" stroke="#000000"></path><path d="M900 496.3L900 481.1L860 500.1Z" fill="#0d0d0d" stroke="#0d0d0d"></path><path d="M901 474.3L926 437.4L898 450.7Z" fill="#2e2e2e" stroke="#2e2e2e"></path><path d="M806 600L867 547.4L814 500.6Z" fill="#3f3f3f" stroke="#3f3f3f"></path><path d="M0 423.6L0 476.7L37 467.7Z" fill="#2e2e2e" stroke="#2e2e2e"></path><path d="M900 520.4L900 496.3L860 500.1Z" fill="#595959" stroke="#595959"></path><path d="M900 481.1L926 437.4L901 474.3Z" fill="#0d0d0d" stroke="#0d0d0d"></path><path d="M99 0L54 0L78 32.9Z" fill="#505050" stroke="#505050"></path><path d="M288 -15.1L54 0L99 0Z" fill="#505050" stroke="#505050"></path><path d="M62 86.4L66 79.6L0 74.9Z" fill="#262626" stroke="#262626"></path><path d="M0 92.4L-16 131.3L0 153.7Z" fill="#3f3f3f" stroke="#3f3f3f"></path><path d="M0 153.7L-55 172.4L0 192.3Z" fill="#474747" stroke="#474747"></path><path d="M0 192.3L-55 172.4L0 238.1Z" fill="#000000" stroke="#000000"></path><path d="M0 238.1L-55 172.4L0 258.9Z" fill="#1e1e1e" stroke="#1e1e1e"></path><path d="M0 258.9L-55 172.4L0 290Z" fill="#505050" stroke="#505050"></path><path d="M0 290L-22 454.3L7 358Z" fill="#363636" stroke="#363636"></path><path d="M0 422.4L-22 454.3L0 423.6Z" fill="#505050" stroke="#505050"></path><path d="M0 423.6L-22 454.3L0 476.7Z" fill="#505050" stroke="#505050"></path><path d="M900 496.3L926 437.4L900 481.1Z" fill="#2e2e2e" stroke="#2e2e2e"></path><path d="M916 382.6L926 437.4L912 186.1Z" fill="#363636" stroke="#363636"></path><path d="M873 20.9L767 20.7L843 76.6Z" fill="#000000" stroke="#000000"></path><path d="M757 0L818 -43.1L734 0Z" fill="#0d0d0d" stroke="#0d0d0d"></path><path d="M610 -6.1L818 -43.1L424 -2.3Z" fill="#0d0d0d" stroke="#0d0d0d"></path><path d="M-52 516.6L0 500.1L0 476.7Z" fill="#000000" stroke="#000000"></path><path d="M0 476.7L0 500.1L37 467.7Z" fill="#262626" stroke="#262626"></path><path d="M0 92.4L-49 150.7L-16 131.3Z" fill="#363636" stroke="#363636"></path><path d="M0 74.9L66 79.6L73 50.6Z" fill="#0d0d0d" stroke="#0d0d0d"></path><path d="M-55 172.4L-22 454.3L0 290Z" fill="#2e2e2e" stroke="#2e2e2e"></path><path d="M900 58.7L873 20.9L843 76.6Z" fill="#0d0d0d" stroke="#0d0d0d"></path><path d="M0 81.7L-49 150.7L0 92.4Z" fill="#474747" stroke="#474747"></path><path d="M0 37.6L0 74.9L73 50.6Z" fill="#262626" stroke="#262626"></path><path d="M867 547.4L900 520.4L860 500.1Z" fill="#000000" stroke="#000000"></path><path d="M900 496.3L900 520.4L926 437.4Z" fill="#000000" stroke="#000000"></path><path d="M900 600L900 520.4L867 547.4Z" fill="#505050" stroke="#505050"></path><path d="M934 0L900 58.7L900 109.9Z" fill="#171717" stroke="#171717"></path><path d="M900 109.9L900 58.7L851 99.4Z" fill="#2e2e2e" stroke="#2e2e2e"></path><path d="M773 607.3L829 641.1L806 600Z" fill="#000000" stroke="#000000"></path><path d="M806 600L894 600L867 547.4Z" fill="#0d0d0d" stroke="#0d0d0d"></path><path d="M647 630.1L829 641.1L695 618.1Z" fill="#3f3f3f" stroke="#3f3f3f"></path><path d="M484 647.1L829 641.1L647 630.1Z" fill="#595959" stroke="#595959"></path><path d="M-52 516.6L0 540.3L0 500.1Z" fill="#595959" stroke="#595959"></path><path d="M0 500.1L0 540.3L90 540.4Z" fill="#595959" stroke="#595959"></path><path d="M73 581.1L0 600L98 600Z" fill="#595959" stroke="#595959"></path><path d="M54 0L0 37.6L73 50.6Z" fill="#3f3f3f" stroke="#3f3f3f"></path><path d="M0 74.9L-49 150.7L0 81.7Z" fill="#1e1e1e" stroke="#1e1e1e"></path><path d="M0 37.6L-49 150.7L0 74.9Z" fill="#3f3f3f" stroke="#3f3f3f"></path><path d="M-16 131.3L-49 150.7L0 153.7Z" fill="#2e2e2e" stroke="#2e2e2e"></path><path d="M-49 150.7L-55 172.4L0 153.7Z" fill="#0d0d0d" stroke="#0d0d0d"></path><path d="M54 0L12 3.9L0 37.6Z" fill="#2e2e2e" stroke="#2e2e2e"></path><path d="M0 37.6L0 0L-49 150.7Z" fill="#505050" stroke="#505050"></path><path d="M934 0L900 0L900 58.7Z" fill="#2e2e2e" stroke="#2e2e2e"></path><path d="M900 58.7L900 0L873 20.9Z" fill="#0d0d0d" stroke="#0d0d0d"></path><path d="M873 20.9L900 0L818 -43.1Z" fill="#000000" stroke="#000000"></path><path d="M829 641.1L894 600L806 600Z" fill="#262626" stroke="#262626"></path><path d="M900 520.4L900 600L926 437.4Z" fill="#262626" stroke="#262626"></path><path d="M288 -15.1L0 0L54 0Z" fill="#1e1e1e" stroke="#1e1e1e"></path><path d="M54 0L0 0L12 3.9Z" fill="#262626" stroke="#262626"></path><path d="M12 3.9L0 0L0 37.6Z" fill="#595959" stroke="#595959"></path><path d="M818 -43.1L0 0L288 -15.1Z" fill="#505050" stroke="#505050"></path><path d="M829 641.1L900 600L894 600Z" fill="#474747" stroke="#474747"></path><path d="M894 600L900 600L867 547.4Z" fill="#363636" stroke="#363636"></path><path d="M-43 600L0 600L0 540.3Z" fill="#595959" stroke="#595959"></path><path d="M0 540.3L0 600L73 581.1Z" fill="#595959" stroke="#595959"></path><path d="M-55 172.4L-52 516.6L-22 454.3Z" fill="#2e2e2e" stroke="#2e2e2e"></path><path d="M-22 454.3L-52 516.6L0 476.7Z" fill="#262626" stroke="#262626"></path><path d="M912 186.1L934 0L900 109.9Z" fill="#171717" stroke="#171717"></path><path d="M900 0L934 0L818 -43.1Z" fill="#3f3f3f" stroke="#3f3f3f"></path><path d="M926 437.4L934 0L912 186.1Z" fill="#3f3f3f" stroke="#3f3f3f"></path><path d="M-52 516.6L-43 600L0 540.3Z" fill="#474747" stroke="#474747"></path><path d="M0 600L-43 600L136 644.1Z" fill="#1e1e1e" stroke="#1e1e1e"></path></g></svg>